<?xml version="1.0" encoding="UTF-8" standalone="no"?>
<!-- Created with Inkscape (http://www.inkscape.org/) -->

<svg
   xmlns:dc="http://purl.org/dc/elements/1.1/"
   xmlns:cc="http://creativecommons.org/ns#"
   xmlns:rdf="http://www.w3.org/1999/02/22-rdf-syntax-ns#"
   xmlns:svg="http://www.w3.org/2000/svg"
   xmlns="http://www.w3.org/2000/svg"
   xmlns:sodipodi="http://sodipodi.sourceforge.net/DTD/sodipodi-0.dtd"
   xmlns:inkscape="http://www.inkscape.org/namespaces/inkscape"
   width="434"
   height="120"
   viewBox="0 0 114.82917 31.750001"
   version="1.1"
   id="svg8"
   inkscape:version="0.92.4 (5da689c313, 2019-01-14)"
   sodipodi:docname="logo-white.svg">
  <defs
     id="defs2" />
  <sodipodi:namedview
     id="base"
     pagecolor="#ffffff"
     bordercolor="#666666"
     borderopacity="1.0"
     inkscape:pageopacity="0.0"
     inkscape:pageshadow="2"
     inkscape:zoom="2.8"
     inkscape:cx="240.81063"
     inkscape:cy="26.948697"
     inkscape:document-units="mm"
     inkscape:current-layer="layer1"
     showgrid="false"
     units="px"
     inkscape:pagecheckerboard="true"
     inkscape:window-width="1920"
     inkscape:window-height="986"
     inkscape:window-x="-11"
     inkscape:window-y="-11"
     inkscape:window-maximized="1" />
  <metadata
     id="metadata5">
    <rdf:RDF>
      <cc:Work
         rdf:about="">
        <dc:format>image/svg+xml</dc:format>
        <dc:type
           rdf:resource="http://purl.org/dc/dcmitype/StillImage" />
        <dc:title />
      </cc:Work>
    </rdf:RDF>
  </metadata>
  <g
     inkscape:label="Layer 1"
     inkscape:groupmode="layer"
     id="layer1"
     transform="translate(0,-265.24998)">
    <text
       xml:space="preserve"
       style="font-style:normal;font-weight:normal;font-size:10.58333302px;line-height:1.25;font-family:sans-serif;letter-spacing:0px;word-spacing:0px;fill:#000000;fill-opacity:1;stroke:none;stroke-width:0.26458332"
       x="22.115791"
       y="285.48526"
       id="text4568"><tspan
         sodipodi:role="line"
         id="tspan4566"
         x="22.115791"
         y="285.48526"
         style="font-style:normal;font-variant:normal;font-weight:bold;font-stretch:normal;font-size:11.99444485px;font-family:sans-serif;-inkscape-font-specification:'sans-serif Bold';fill:#ffffff;fill-opacity:1;stroke-width:0.26458332">SUPOMATION</tspan></text>
    <path
       id="path4580"
       d="m 7.571122,288.05226 q 0,0.62538 -0.3866938,1.08238 -0.3867048,0.45701 -0.9158693,0.45701 -0.5291633,0 -0.9158674,-0.45701 -0.3866943,-0.45702 -0.3866943,-1.08238 0,-0.62537 0.3866943,-1.08238 0.3867041,-0.45702 0.9158674,-0.45702 0.5291645,0 0.9158693,0.45702 0.3866938,0.45701 0.3866938,1.08238 z m 9.117946,0 q 0,0.62538 -0.386695,1.08238 -0.386694,0.45701 -0.915866,0.45701 -0.529163,0 -0.915867,-0.45701 -0.386694,-0.45702 -0.386694,-1.08238 0,-0.62537 0.386694,-1.08238 0.386704,-0.45702 0.915867,-0.45702 0.529172,0 0.915866,0.45702 0.386695,0.45701 0.386695,1.08238 z m 1.30257,-13.08484 v 6.15757 q 0,0.28863 -0.167914,0.51113 -0.167906,0.22249 -0.412132,0.25858 l -10.6240411,1.46723 q 0.1322954,0.72159 0.1322954,0.84185 0,0.19243 -0.2442353,0.7697 h 9.362182 q 0.26458,0 0.457933,0.2285 0.193342,0.22851 0.193342,0.54121 0,0.31268 -0.193342,0.54118 -0.193353,0.22851 -0.457933,0.22851 H 5.6172826 q -0.2645912,0 -0.4579334,-0.22851 -0.1933521,-0.2285 -0.1933521,-0.54118 0,-0.1323 0.081441,-0.37885 0.081441,-0.24653 0.162814,-0.43296 0.081441,-0.18642 0.218789,-0.48106 0.1373869,-0.29464 0.1577424,-0.35478 L 3.7855783,274.19772 H 1.7096188 q -0.2645912,0 -0.4579335,-0.2285 -0.193352,-0.22851 -0.193352,-0.54121 0,-0.31269 0.193352,-0.54119 0.1933423,-0.2285 0.4579336,-0.2285 h 2.6051222 q 0.1628239,0 0.2900282,0.0782 0.1272041,0.0782 0.1984335,0.18642 0.0712,0.10824 0.1322956,0.29465 0.061056,0.18642 0.081441,0.31269 0.020385,0.12628 0.055936,0.35478 0.035649,0.2285 0.045792,0.31268 H 17.340382 q 0.264582,0 0.457934,0.22852 0.193352,0.2285 0.193352,0.5412 z"
       inkscape:connector-curvature="0"
       style="fill:#ffffff;fill-opacity:1;stroke-width:0.06666667;stroke-miterlimit:4;stroke-dasharray:none" />
  </g>
</svg>
