<?xml version="1.0" encoding="UTF-8" standalone="no"?>
<!-- Created with Inkscape (http://www.inkscape.org/) -->

<svg
   xmlns:dc="http://purl.org/dc/elements/1.1/"
   xmlns:cc="http://creativecommons.org/ns#"
   xmlns:rdf="http://www.w3.org/1999/02/22-rdf-syntax-ns#"
   xmlns:svg="http://www.w3.org/2000/svg"
   xmlns="http://www.w3.org/2000/svg"
   xmlns:sodipodi="http://sodipodi.sourceforge.net/DTD/sodipodi-0.dtd"
   xmlns:inkscape="http://www.inkscape.org/namespaces/inkscape"
   width="434"
   height="120"
   viewBox="0 0 114.82917 31.750001"
   version="1.1"
   id="svg8"
   inkscape:version="0.92.4 (5da689c313, 2019-01-14)"
   sodipodi:docname="logo-green.svg"
   inkscape:export-filename="C:\Users\Patrick\Desktop\git\supomation\assets\logos\logo-green.png"
   inkscape:export-xdpi="96"
   inkscape:export-ydpi="96">
  <defs
     id="defs2" />
  <sodipodi:namedview
     id="base"
     pagecolor="#ffffff"
     bordercolor="#666666"
     borderopacity="1.0"
     inkscape:pageopacity="0.0"
     inkscape:pageshadow="2"
     inkscape:zoom="3.1382488"
     inkscape:cx="211.74669"
     inkscape:cy="36.316142"
     inkscape:document-units="mm"
     inkscape:current-layer="layer1"
     showgrid="false"
     units="px"
     inkscape:pagecheckerboard="true"
     inkscape:window-width="1920"
     inkscape:window-height="986"
     inkscape:window-x="-11"
     inkscape:window-y="-11"
     inkscape:window-maximized="1" />
  <metadata
     id="metadata5">
    <rdf:RDF>
      <cc:Work
         rdf:about="">
        <dc:format>image/svg+xml</dc:format>
        <dc:type
           rdf:resource="http://purl.org/dc/dcmitype/StillImage" />
        <dc:title />
      </cc:Work>
    </rdf:RDF>
  </metadata>
  <g
     inkscape:label="Layer 1"
     inkscape:groupmode="layer"
     id="layer1"
     transform="translate(0,-265.24998)">
    <text
       xml:space="preserve"
       style="font-style:normal;font-weight:normal;font-size:14.15668964px;line-height:1.25;font-family:sans-serif;letter-spacing:0px;word-spacing:0px;fill:#4caf50;fill-opacity:1;stroke:none;stroke-width:0.35391721"
       x="23.84226"
       y="214.80457"
       id="text4568"
       transform="scale(0.74171504,1.3482267)"><tspan
         sodipodi:role="line"
         id="tspan4566"
         x="23.84226"
         y="214.80457"
         style="font-style:normal;font-variant:normal;font-weight:bold;font-stretch:normal;font-size:16.98802757px;font-family:sans-serif;-inkscape-font-specification:'sans-serif Bold';fill:#4caf50;fill-opacity:1;stroke-width:0.35391721">SUPOMATION</tspan></text>
    <path
       id="path4580"
       d="m 7.0707887,288.35884 q 0,0.63783 -0.3866938,1.10394 -0.3867048,0.46611 -0.9158693,0.46611 -0.5291633,0 -0.9158674,-0.46611 -0.3866943,-0.46613 -0.3866943,-1.10394 0,-0.63783 0.3866943,-1.10394 0.3867041,-0.46612 0.9158674,-0.46612 0.5291645,0 0.9158693,0.46612 0.3866938,0.46611 0.3866938,1.10394 z m 9.1179463,0 q 0,0.63783 -0.386695,1.10394 -0.386694,0.46611 -0.915866,0.46611 -0.529163,0 -0.915867,-0.46611 -0.386694,-0.46613 -0.386694,-1.10394 0,-0.63783 0.386694,-1.10394 0.386704,-0.46612 0.915867,-0.46612 0.529172,0 0.915866,0.46612 0.386695,0.46611 0.386695,1.10394 z m 1.30257,-13.34543 v 6.2802 q 0,0.29438 -0.167914,0.52131 -0.167906,0.22692 -0.412132,0.26373 L 6.2872176,283.5751 q 0.1322954,0.73596 0.1322954,0.85861 0,0.19627 -0.2442353,0.78503 H 15.53746 q 0.26458,0 0.457933,0.23305 0.193342,0.23307 0.193342,0.55199 0,0.31891 -0.193342,0.55196 -0.193353,0.23306 -0.457933,0.23306 H 5.1169493 q -0.2645912,0 -0.4579334,-0.23306 -0.1933521,-0.23305 -0.1933521,-0.55196 0,-0.13493 0.081441,-0.38639 0.081441,-0.25144 0.162814,-0.44159 0.081441,-0.19013 0.218789,-0.49064 0.1373869,-0.3005 0.1577424,-0.36184 L 3.285245,274.22838 H 1.2092855 q -0.2645912,0 -0.4579335,-0.23305 Q 0.558,273.76227 0.558,273.44334 q 0,-0.31892 0.193352,-0.55197 0.1933423,-0.23305 0.4579336,-0.23305 h 2.6051222 q 0.1628239,0 0.2900282,0.0798 0.1272041,0.0797 0.1984335,0.19013 0.0712,0.1104 0.1322956,0.30052 0.061056,0.19013 0.081441,0.31892 0.020385,0.12879 0.055936,0.36184 0.035649,0.23305 0.045792,0.31891 H 16.840049 q 0.264582,0 0.457934,0.23307 0.193352,0.23305 0.193352,0.55198 z"
       inkscape:connector-curvature="0"
       style="fill:#4caf50;fill-opacity:1;stroke-width:0.06732725;stroke-miterlimit:4;stroke-dasharray:none" />
  </g>
</svg>
